<svg width="458" height="172" viewBox="0 0 458 172" fill="none" xmlns="http://www.w3.org/2000/svg">
<path d="M400.263 99.2864C408.765 97.0081 417.223 94.5597 425.777 92.4758C449.741 86.6796 460.656 64.9297 457.168 41.8054C455.089 28.1198 448.834 16.4383 437.833 7.64301C430.017 1.40529 421.052 -0.566986 411.254 0.860705C387.854 4.29254 364.422 7.60288 341.058 11.3635C337.188 11.9838 333.784 15.2135 329.877 16.1821C256.28 34.4963 182.488 52.0816 109.08 71.1003C80.3488 78.5385 52.3433 88.8806 24.152 98.3352C8.62158 103.538 1.49967 115.731 0.322742 131.357C-0.878009 147.379 5.05041 159.982 20.0969 167.354C28.3642 171.388 37.2186 171.88 45.8794 170.288C93.2388 161.53 140.683 153.088 187.822 143.217C243.588 131.529 299.062 118.461 354.69 106.16C356.951 105.658 359.578 107.011 362.072 107.28C364.248 107.53 366.573 107.949 368.603 107.457C379.168 104.809 389.661 101.893 400.204 99.0678C400.224 99.1407 400.237 99.1892 400.256 99.2621L400.263 99.2864ZM58.7857 100.486C61.5239 99.3355 62.9568 98.561 64.4743 98.1023C86.4816 91.3201 108.272 83.6326 130.586 77.9923C199.215 60.6708 268.039 44.078 336.813 27.3946C339.085 26.8378 342.323 27.4544 344.243 28.7887C354.732 36.1589 365.992 37.8546 378.205 34.5561C387.097 32.1736 395.96 29.5903 404.943 27.548C415.025 25.237 424.281 30.3341 426.965 39.3791C429.37 47.4831 428.085 55.2222 423.413 62.1764C416.491 72.4933 404.84 72.9334 397.532 63.1487C394.286 58.8107 391.74 53.9729 388.796 49.398C383.477 41.1112 375.908 41.2385 371.904 50.2008C367.029 61.0628 361.607 72.0195 359.195 83.5235C357.519 91.5498 353.327 92.6208 347.389 93.9775C307.583 103.133 267.907 112.775 228.022 121.536C180.562 131.961 132.962 141.669 85.4083 151.547C77.7601 153.127 69.9279 153.924 60.5444 155.345C77.0818 136.02 79.147 118.073 58.7857 100.486ZM39.8217 152.539C25.0402 155.485 14.6517 148.296 13.9767 133.921C13.6177 126.363 16.86 120 22.0559 114.806C30.828 106.05 45.1616 106.584 54.2223 115.717C61.9546 123.487 61.4736 134.422 52.3181 143.593C48.7484 147.179 44.0061 149.596 39.8217 152.539Z" fill="#FF00E6"/>
</svg>
